<svg xmlns="http://www.w3.org/2000/svg" width="1602.7" height="613.3" viewBox="0 0 1202 460"><path d="M769.6 117.8a87 87 0 0 1-21.1 19.2 266 266 0 0 1-31.5 18.4c-4.2 1.7-4.5 1.7-5.7-.1-2.6-3.8-3.5-4.3-7.1-4.3-4.1 0-8.2 2.3-8.2 4.6 0 .8.9 3.2 2 5.4 1.6 3.1 2 5.9 2 13.7 0 8.9-2.1 38.8-3.4 48.8L695 236a176 176 0 0 1-15.2 57c-4.9 10.2-8.6 16-10.3 16-1.5 0-3.5 4.3-3.5 7.3q.3 6.1 7.3 6.2c12.7 0 22.8-13.3 29.2-38 1.6-6.3 4.2-24.6 6.5-46.5 1.7-16 1.9-16.8 4.3-18.5a11 11 0 0 1 5.2-1.5c4.1 0 23.1-4.2 34.1-7.5 1.8-.6 2.2-.1 2.8 2.6.9 4.5-.4 82.5-1.5 93.4a755 755 0 0 0-3.1 48.3c0 5.5 2 9.2 4.9 9.2 2.8 0 7.4-3.2 8.5-5.8 3-7.6 3.2-11.7 3.7-80.7l.6-70.9 7.3-1.3c7.9-1.3 19.1-1.8 31.9-1.4 4.6.1 9-.2 10.2-.9 3.2-1.7 2.6-5.4-1.4-9.5-3.2-3.1-4.1-3.5-8.8-3.5-2.9 0-5.7.4-6.2.9s-5.9 1.2-12 1.5-14.1.8-17.8 1.2q-7 .7-9.2-.6c-3.4-1.8-7.3-.5-9.5 3.3-1.5 2.5-3.1 3.6-6.7 4.6L739 203c-7.4 2.4-23.6 5.4-25.5 4.7-1.3-.5-1.5-3.1-1.5-16.8 0-19.3.9-23.6 5.7-25.5 1.8-.8 4.4-1.4 5.8-1.4a104 104 0 0 0 45-17.1c9.7-6.5 15.5-12.9 15.5-17.3 0-6.8-5.7-15.6-10.1-15.6-1.1 0-2.9 1.6-4.3 3.8m-337.1 11.9q-4 3.7 4.3 13.2c5.9 6.8 7.2 9.1 7.2 12.8q-.1 2.8 3.8 6.6c3.7 3.7 3.9 3.7 12 3.7q8.3 0 8.2-1.2c0-2.1-4.1-12.6-6.7-17.4-5.4-9.7-17.8-19.4-24.7-19.4-1.4 0-3.2.7-4.1 1.7m-207 1.3-9.5 3.1c-9.5 2.8-23.7 9.6-24.4 11.5q-.7 1.6 1.4 1.2 2.1-.3 3.3 2.2c1.7 3.3 5.4 3.7 13 1.1a79 79 0 0 1 20.9-4.1h4.1l-.6 21.7a595 595 0 0 1-3.5 53.3c-1.2 9.1-5.6 20.6-8.2 21.3-2.3.6-8.9-2.4-11.4-5.2q-3.8-4-2.9-.1c.7 2.6-1.1 2.6-3.7 0-1.9-1.9-1.9-2.1-.2-5.2 4.8-8.8 15.9-38.2 18.4-48.5q1.8-8-5.5-13.1c-5.9-3.9-6.7-3.3-6.7 5.5 0 4.2-.4 9-1 10.7a237 237 0 0 1-12.2 32.8 38 38 0 0 1-5.9 10.2c-.5-.3-.9-6.9-1-14.7s-.4-16.5-.8-19.3a81 81 0 0 1 .2-14.6 34 34 0 0 0-.7-15.2c-1.4-4.8-2-5.7-3.8-5.4-2.1.3-5.4 5.6-7.5 11.8-2.3 7.1-3.6 33.5-2.3 47.5 1 11.3 1.5 13.4 3.7 16.3a15 15 0 0 0 4.9 4.2c1.3.5 2.4 1.1 2.4 1.4 0 1.7-13.1 24.4-20.3 35.1a184 184 0 0 1-38.9 42.7c-10.2 7.5-11.9 9-12.8 11.4-1.6 4.2-.3 5.4 5.7 5.4 4 0 7.2-.8 11.7-2.9 15.4-7.5 48-48.8 65.5-83.4 1.9-3.7 3.7-6.7 4.1-6.7q.8.2 2.5 2c1.6 1.8 1.7 2.2.3 3.7-1.5 1.7-2.3 4.8-4.9 19.3-.6 3-2 9.3-3.2 14a72 72 0 0 0-2.1 18.5c0 8.8.3 10.7 2.7 15.7 4.6 9.5 13.2 15.6 26.7 18.8 3.8 1 13.6 1.4 32.5 1.4 25.5.1 27.4 0 34-2.2 21-6.9 26.5-14.1 26.5-35.2q0-13-4-13c-2.7 0-6 8.8-6 15.9 0 8.8-7.1 15.8-19 18.9a125 125 0 0 1-38.5 3.6c-20.5 0-22.4-.1-27.7-2.2-6.7-2.7-12.3-8-14.9-14a42 42 0 0 1-1-21.5c.5-2.3 1.5-7.6 2.1-11.7l2.2-13.8c.9-5.3.8-6.5-.4-7.5-1.7-1.3-3.1-4.7-2-4.7 1.8.1 5 3.9 6.1 7.3 1.2 3.6 4 6.2 9.4 8.5 4.3 1.9 7.1 1.4 9.9-1.6 8.6-9.1 11.6-27 13.9-83.7l1.5-32.9c.5-8.1.4-9-1.7-11.2-4-4.2-15-6.7-20.4-4.4m799.5 5.5a312 312 0 0 0-36.5 13c-15.1 5.9-15 5.9-20.7 8.4a31 31 0 0 1-5.5 2.1c-.8 0-14.5 5.2-19.9 7.6-2.9 1.3-7.2 5.1-6.3 5.7a53 53 0 0 0 17.2 2.7c7.6 0 17.7-2.6 27.8-7.3l12.2-5.6a54 54 0 0 1 10.5-4c1.6-.9 8.9-3.6 15.9-5.8 1.7-.6 3.4-.9 3.6-.6.3.2-.3 2.6-1.3 5.2-3.1 8.7-6.1 21.9-9 40.6-1.4 8.8-1.4 49.2 0 58.3 2.6 17.1 3.4 21.2 5.2 28.2a82 82 0 0 0 22 40.8c6.3 6.2 9.4 8.4 16.4 11.6 15.3 7.2 34.2 9.2 43.7 4.6 6.2-2.9 9.7-7.1 9.7-11.6 0-3.6-1.5-7.3-6.6-15.9-4.3-7.1-10.3-20-15.3-32.8-1.3-3.1-2.8-5.7-3.3-5.7q-1.8 0 1.7 30.2c1.8 15.3 1.8 15.8 0 17.8-3.4 3.7-14.2 2.2-26.1-3.6-11.2-5.5-22.5-21.1-28.2-38.9-1.8-5.6-2.4-8.2-5.1-22a158 158 0 0 1-2.1-40.7 222 222 0 0 1 6-38.3c1.5-6.5 2.5-8.6 8-17 6.3-9.6 9-15.7 9-20.6 0-4.4-.9-5.7-5.3-7.7-3.9-1.7-7.8-1.4-17.7 1.3"/><path d="M511 145a182 182 0 0 0-19 5.4 33 33 0 0 1-8.1 1.6c-3.9 0-9.4 3.4-8.3 5.2 1.2 1.9 9.6 4.8 13.8 4.8 2.3 0 8.6-.9 13.9-2.1a67 67 0 0 1 13-1.7l3.2.3.7 8.5c.3 4.7.6 15.8.7 24.7l.1 16.3h-4.9c-2.8 0-5.3-.5-5.6-1-.8-1.3-9.4-1.1-18 .4-3.8.7-7.4 1-7.8.6s-.5-4.1-.1-8.3l.7-7.5 6.2-1.1c3.4-.6 7.1-1.1 8.3-1.1 2.9 0 7-2 7.7-3.8.3-.8 0-2.1-.7-2.9-1.2-1.5-8.5-1.4-19 .3l-3.8.6v-5.5q0-10.7-4.6-10.7c-2.5 0-2.4-.3-4.3 10.9-.6 3.6-1.4 6.8-1.9 7.3s-4.2 1.2-8.4 1.8c-4.1.5-9.5 1.6-11.9 2.4-2.4.9-5.4 1.6-6.6 1.6-3.1 0-2.9 1.5.5 2.8 7.2 2.8 10.4 3.1 16.1 1.5 3.1-.8 6.8-1.8 8.4-2l2.7-.5v8.1c0 9.7.6 9.2-14.5 11.1-5.5.6-12.2 1.8-15 2.5-7.9 2-8.3 1.4-8.2-11.2.2-10.5-1.5-20.3-3.4-20.3-.5 0-.9-1.8-.9-4.1 0-3.2-.3-4-1.7-3.7q-6.8 1.3-9.2 40.8l-2.1 33.5-2 31.8a62 62 0 0 0 0 17.6c.5 1.1 1 4.3 1 7.2 0 7.9 5.8 14.7 11.4 13.3 3.2-.8 6.6-7.8 6.6-13.6 0-4.3.1-4.3 7.2-8.3a95 95 0 0 0 21.2-15.7c2.6-2.6 5.1-4.8 5.4-4.8.6 0-.6 31.4-1.6 41.9-.7 6.9-.6 7.4 1.6 9.2 3.3 2.6 6.3 3.4 7.2 1.9 1.7-2.7 3-16.7 3-31.5 0-8.4.3-16 .6-16.8q.5-1.4 2.7-.9c4.3 1 14.6 6 20.3 9.9 6.1 4 14.5 8.3 16.5 8.3.8 0 .9 2.5.4 8.7-1.3 17.1-3.6 20.1-14 18.2-3.1-.6-7.7-1.9-10.1-3-6-2.5-6.4-2.4-6.4 1.1 0 2.9 2.9 7 5.1 7 .5 0 3.8 2.3 7.2 5 8.1 6.6 15.6 10.3 19.1 9.4 3.1-.7 7.2-5.4 9.7-10.9 5.2-11.7 6.9-41 6.9-119.7 0-37.8.3-54 1.2-57.2 1.5-5.6.2-8.4-5.4-12.1-5.2-3.5-13.1-4-22.8-1.5m-.6 73.5a36 36 0 0 1-2.9 9l-5.1 11.5c-3.5 7.9-4 8.5-6 8.1a61 61 0 0 0-7.6-.4c-5.5.1-5.8-.1-5.8-2.3 0-1.3.5-2.4 1-2.4 1.8 0 17-15.2 17-17.1q0-4.9-8.1-4.9c-5.4 0-5.5.1-3.6 3 1 1.7.9 2.6-.9 5.7-3.5 6.1-4.4 5.4-4.4-3.6 0-7.5.1-8.1 2.3-8.6 3.2-.7 11.3-1.2 18.2-1.1l6 .1zm-36.4 9.2v7.7l-4.1-4.2q-7.1-7-14.5-5.9-3.6.6-3.4-.8t2.3-1.9l6.2-1.4a47 47 0 0 1 8.8-1.1l4.7-.1zm-34.5-1c2 4.1 3.2 8.3 4.5 15.7a61 61 0 0 0 3.8 11.1c3.5 7.3 4.6 7.8 15.5 6.4a27 27 0 0 1 7.5-.4c.9.9-3.3 6.2-10.9 13.6-8.1 7.9-23.4 18.7-24.7 17.5-1.6-1.7.1-67.6 1.8-67.6.4 0 1.6 1.7 2.5 3.7m83.5 14.4c-.5 6.3-1 19.5-1 29.5s-.3 18.4-.7 18.7-2.2-.3-4.2-1.5c-6.8-4.3-14.7-7.7-24.9-11l-10.2-3.3.2-7.5c.3-6.9.5-7.5 2.5-7.8q2.4-.6 3.3 2.2c1.7 4.5 4.4 5.1 10.8 2.1 9.5-4.4 10.6-5.2 12.9-9.7a148 148 0 0 0 9.5-22.3c2.2-4.8 2.8-.9 1.8 10.6m-62.7-5.6c4.6 4.7 5.9 5.5 9.1 5.5h3.7l-.3 4.2c-.3 4-.5 4.3-3.8 5-1.9.3-4.5.9-5.7 1.3-2.5.8-3 0-6.5-11.5l-2.5-8.3c-.9-2.8.3-2 6 3.8M369 147.8c-3.8 3.1-2 6.6 9.3 18.2a153 153 0 0 0 13.1 12.4c3.9 2.5 12.5 2.4 16.9-.1 7.4-4.4 6-11-4.8-23.6l-7.6-8.7h-12.3c-10.5 0-12.7.3-14.6 1.8M662 161c-3.6.9-13.2 4.1-21.5 7-19.9 6.9-18.7 6.7-22.6 3.1-3.4-3.3-8.8-4.2-10.6-1.9a20 20 0 0 0-2.3 14l2.2 8.3c2.2 8.4 7.2 22.3 10.4 29.3 1.9 4 3.7 8.5 4 9.9.7 2.5 6.4 7.2 12.2 10 3.1 1.5 3.4 1.5 5.7-.7 1.4-1.3 2.5-2.9 2.5-3.5 0-3.2 7.7-5.8 24.2-8.2q3.8-.4 6.8-3.9c3.6-4.1 3.7-5.1.9-8l-2.2-2.3 2.3-5.8c1.3-3.2 2.6-6.3 3-6.8s1.7-3.7 3-7 2.7-6.4 3.2-7 .8-1.5.8-2.2a24 24 0 0 1 3-6.1c3.9-6.5 3.9-9.4-.2-12.5-4-2.9-11.3-6.2-15.3-7-1.6-.3-5.9.3-9.5 1.3m-1.7 18c-.1 1.9-1.1 6.6-2.3 10.5-6.8 21.5-7.5 23.1-10.6 26.2-3.9 4-7.9 4.4-8.9 1l-2.7-6.7a54 54 0 0 1-3.2-11.5c-.8-4.3-1.7-6.9-2.4-6.8-1.4.3-4.5-6.5-3.8-8.3.2-.6 1.7-1.4 3.3-1.7l10.8-2.7a66 66 0 0 1 17.5-3.7c2.2.2 2.5.6 2.3 3.7m-533.2-17.3a31 31 0 0 0-8 4.2 52 52 0 0 1-26.7 9.6c-11.8 1.7-13.1 2.1-16.1 4.8-7 6.3 2.2 14.5 18.2 16.2 5.2.6 7 .3 12.5-1.9 7.1-2.9 9-2.8 9 .6 0 2.8-4.3 16.5-6.5 20.8-1.3 2.5-2 3-3.8 2.4l-8.2-2.4c-3.3-1-9.1-2.3-13-3-17.1-3-15.9 1.1 4 14.7a54 54 0 0 1 8.3 6.6c2.1 2.2 2.2 2.8 1.1 4.8-4 7.5-16 20.9-23.1 25.9-6.3 4.3-7.7 6.4-6.2 8.7 1.3 2 3.3 2 15.7.4a50 50 0 0 0 10-2.2c1.2-.7 6.8-5.7 12.4-11.2l10.3-10 6.2 6q12.3 11.6 19 11.1c2.5-.2 3.4-.8 3.6-2.6a5 5 0 0 1 2.3-3.2c2.2-1.3 2.4-2.8.5-6.4-1.6-3.2-8.7-13.1-14.5-20.3l-4.3-5.5 3.5-7.6c4.5-9.6 8.7-20.2 8.7-21.7 0-.6 2-6.1 4.5-12.3a64 64 0 0 0 4.5-14.6c0-4.1-3-8.2-7.5-10a39 39 0 0 0-16.4-1.9m776.9 6.5c-4.1 2.2-3.6 4.4 2.1 8.5 9.6 6.8 11.5 16 8.9 41.1a346 346 0 0 1-7 44.2c-1.3 6.3-6.1 19.4-9.2 25.2-6.2 11.7-14.6 18.2-20.2 15.7-5.1-2.4-9.5 4.5-4.6 7.1 1.5.8 2 2.1 2 5.3 0 4.8 2.6 9.8 6.5 12.3 5.5 3.6 16.6-.8 22.9-9 3.8-5.1 11.3-21.2 15.6-33.6 2.6-7.6 4-10.4 5.1-10.1 15.1 4 26.1-2.5 44.1-25.9l2.6-3.5 5.7 5.5a121 121 0 0 1 14.5 17l4.4 5.3c5.4 6.6 7.2 7.4 10.2 4.6 4.6-4.3 2.5-13.2-5.8-25-3-4.4-6.4-7.4-12.7-11.6l-9.5-6.4c-.4-.4 1.2-5.8 3.7-12.1 8.3-20.7 9-23 9.1-27.5.1-3.8-.3-4.8-2.8-6.8-2.8-2.3-10.4-5.1-11.3-4.2q-.3.7.6 2.5c1.7 3.2 1.3 8.1-1.3 16.4-2.8 8.8-9.5 23.8-10.7 23.8-.4 0-2.9-1.1-5.6-2.4a124 124 0 0 0-26-8.6c-2.5 0-2.5-.1-1.8-5.7.4-3.1 1.1-6.8 1.7-8.2s.9-6.3 1-10.9c0-7.5-.3-8.9-2.9-13-4.3-6.9-10.5-10.4-19.6-10.9q-7.2-.4-9.7.9m35.3 55.4c6 3.1 18.1 11 19.8 13 2.7 3.3-12.5 18-23.9 23-7.9 3.6-8.5 3.4-7.8-2.9.9-7 2.5-18 3.7-24.6.5-3 .9-6.7.9-8.3 0-3.5.7-3.5 7.3-.2m-598.2-20.2c-2.8 2.9-3.2 3.9-2.9 7.7.3 4.1.7 4.7 5.8 8.1 7.6 5.2 13 6.8 22.3 6.8 6.4 0 8.4-.4 10.8-2.1 7.5-5.3 1.1-11.1-17.6-15.8a17 17 0 0 1-7.3-4.6c-4.2-4.4-6.9-4.4-11.1-.1m59.7 37.3-3.4 7.8c-4 8.8-8.4 20.5-14.1 37.5-3 9.1-5.6 16.7-5.8 16.9s-1.8-.8-3.5-2.2-3.6-2.4-4.3-2.1c-1.5.5-3.7 10.1-3.7 16 0 2.2-.4 4.4-.9 4.9-2.2 2.5-2.9 7.4-1.7 11.5 1.1 3.6 1.8 4.5 5.2 5.7 3.2 1.1 4.9 1.2 9.1.2 6.5-1.5 7.9-3.5 9.8-13.7.8-4.2 1.9-9.5 2.5-11.7 1.4-5.4 4.9-22.6 6-30l2-11c1.1-5.1 2.5-14.2 3.6-22.8.4-2.6 1.1-5 1.5-5.3 1.2-.7 1.1-4.4-.1-4.4-.6 0-1.5 1.2-2.2 2.7"/></svg>