<svg xmlns="http://www.w3.org/2000/svg" viewBox="0 0 1028 932"><style>path{fill:#1b1b1b}@media (prefers-color-scheme:dark){path{fill:#ededed}}</style><path d="M657.5 16.6a96 96 0 0 0-59.4 30.9 111 111 0 0 0-31.5 64.6l-.7 4.6-19.2-9.6A681 681 0 0 0 377 51c-81.8-15.6-179.9-7.7-267.5 21.5-39.1 13-85.4 33.4-89.2 39.2-2.4 3.6-3.2 36.5-1.1 42.7 3 9 9.9 10.1 22.8 3.6a571 571 0 0 1 188-58.1c24.9-3.1 82.9-3.4 106.5-.6 136.8 16.1 260.3 80.1 335.7 173.9a430 430 0 0 1 87.2 189.3c8.5 43.7 8.4 43.5 15.2 45.4 4.6 1.3 10-.5 12.5-3.9 3.4-4.6 8.8-39.4 10.8-68.7l.8-13.1 6.8-14.9c37.2-82.2 37.9-120.1 2.6-148.5-15.1-12.2-28.5-19.9-81.6-47.1-69.9-35.7-90.9-49.6-100.8-66.9-12.4-21.4-3-55.4 18.8-68.3 17.3-10.3 50.4-6.8 95.5 10 85 31.6 159.4 79.2 189.7 121.3 32.5 45.1 34.9 105 7.6 194.7l-5.5 18.5c-.6 1.9-4.5 13.4-8.9 25.6-43.8 123.3-117 261.4-228.1 430.1-17.6 26.6-18.5 29.1-14.1 35.1 3.2 4.3 7.2 5.1 26.3 5.1 26.9.1 23.3 2.7 46.8-33.5C877 693.9 957.7 530.2 993.4 397c36.8-137.5 9.7-218.2-97.9-290.9-55.1-37.2-134.8-72.9-188.7-84.5-31.5-6.8-35.2-7.2-49.3-5m107.5 276c18.4 12.1 19.9 17.5 12.4 43.3l-1.6 5.5-10.2-20c-5.6-10.9-13-24.5-16.4-30s-6.2-10.5-6.2-10.9c0-.9 13.7 6.6 22 12.1"/><path d="M141.3 239.1q-8.8 2.7-13.7 23.8c-2.9 12.4-1.4 13.8 28.4 26.1 22 9.1 34.9 15.1 48.1 22.6l10.4 5.8-5 .8c-26 4.3-71.2 14.8-77 18.1-11.2 6.2-10.1 30.3 1.8 39.1 4.4 3.2 11.1 2.6 30.2-2.7a311 311 0 0 1 83.4-12.7c37-1.6 44-3.2 48.5-11 2.9-4.8 2.8-14-.1-19.6-11.9-22.6-64.3-57.9-122.8-82.7-20-8.5-25-9.7-32.2-7.6m488.2 76.3c-47 9.2-103 31-111 43.3-3.3 5-4.5 12.6-3 18.4 2.7 10.3 5.1 12 25.5 18.5a476 476 0 0 1 88.7 39c20 12 28 8.7 33.8-13.8 3.1-11.6-.5-16.8-18.6-27.5a438 438 0 0 0-47.2-23.3c-7.4-.2 14.8-5.4 39-9.1 10.9-1.6 21.5-3.4 23.5-4 7.4-1.9 9.8-8.7 7.9-22.3-2.7-19.6-12.3-24.3-38.6-19.2m-437 84.4c-16.4 5-37.2 19.1-39.4 26.8-1.6 5.9 3.7 14.4 9 14.4 2.6 0 2.4 1.7-1 10.3-39.9 100.3-45.3 211.8-14.7 302.8 25.7 76.7 80 133.3 151.3 157.7l13.8 4.7h102l11-3.7c28.2-9.5 48.2-22.4 72.6-46.8 68.8-68.6 112.7-190.2 121.9-338 .6-9.6 1.2-17.6 1.4-17.7s1.7.1 3.4.6c4.4 1.3 9.5-.3 12.6-4 5.3-6.2 3.3-13-8.1-28.4-16.4-22.1-27.9-24.2-59.8-11-31.2 13-31 13.1-55.6-12.7-18.6-19.5-23.1-22.3-35.9-22.3-10.4.1-14.1 1.5-34 12.5-31.6 17.6-31.9 17.6-56-5.5-23.5-22.5-27.3-24.9-39.2-25H340l-25.2 12.7c-13.9 7-27.1 13.2-29.3 13.8-11.8 3-18.5-.4-51.2-25.7-20.9-16.1-29.4-19.2-41.8-15.5m31.7 62.3c41.2 30.7 54.7 31.5 104.7 6.4l16.7-8.3 15.2 13.9c38.2 34.6 47.2 36 93.3 13.8A247 247 0 0 1 474 479c.6 0 7.4 5.9 15 13.1 32.4 30.7 44 34.4 74.9 24l11.4-3.9-.7 14.6c-5.2 111.6-41.2 227.3-89.8 289a47 47 0 0 1-5.6 6.2c-.4 0-1.6-3-2.7-6.7-9.6-33.8-46.9-77-88.6-102.8-62.1-38.4-144.8-51.5-204.4-32.5-5.1 1.7-9.4 3-9.7 3-1.3 0-3.2-30.2-3.1-52 .1-49.6 7.2-95.4 21.7-139.3a329 329 0 0 1 16.4-40.7c.2 0 7.2 5 15.4 11.1M263.5 713c90.2 8.4 176.2 71.6 183.9 135.2l.5 4.7-5.8 3.5C367 902 268 875.1 214 794.4c-15.1-22.6-31-58.7-31-70.4v-3.9l7.8-2.4c6.6-2.1 13.3-3.3 28.7-5.1 7-.8 33.8-.5 44 .4"/></svg>